<?xml version="1.0" encoding="UTF-8"?>
<svg version="1.1" xmlns="http://www.w3.org/2000/svg" width="1024" height="1024">
<path d="M0 0 C337.92 0 675.84 0 1024 0 C1024 337.92 1024 675.84 1024 1024 C686.08 1024 348.16 1024 0 1024 C0 686.08 0 348.16 0 0 Z " fill="#232322" transform="translate(0,0)"/>
<path d="M0 0 C1.42174609 -0.00339833 1.42174609 -0.00339833 2.87221432 -0.00686532 C6.06203858 -0.01321747 9.25182049 -0.01237518 12.44165039 -0.0115509 C14.72291113 -0.0145416 17.00417135 -0.01794391 19.28543091 -0.02172852 C25.49187103 -0.03058085 31.69829737 -0.03290712 37.90474319 -0.0335443 C43.07906586 -0.03449227 48.25338529 -0.0381692 53.42770672 -0.0417164 C64.93247432 -0.0493995 76.43723405 -0.05238459 87.94200385 -0.05171105 C88.63250244 -0.05167109 89.32300103 -0.05163113 90.03442383 -0.05158997 C90.72576302 -0.05154909 91.41710221 -0.0515082 92.12939107 -0.05146609 C103.34014495 -0.0510594 114.55086527 -0.06063438 125.76160944 -0.07472833 C137.26637885 -0.08907812 148.77112754 -0.09581599 160.27590656 -0.09513456 C166.73757236 -0.094879 173.19920018 -0.09776188 179.66085815 -0.10831261 C185.73467239 -0.11795903 191.80841206 -0.11809663 197.88222885 -0.11079597 C200.1159768 -0.10974588 202.3497293 -0.11213797 204.58346939 -0.11815643 C207.62360643 -0.12581945 210.66348228 -0.12126954 213.70361328 -0.11352539 C214.5955284 -0.11866895 215.48744352 -0.12381252 216.40638638 -0.12911195 C222.50939928 -0.0945588 222.50939928 -0.0945588 225.85180664 2.13371277 C226.24658203 4.54875183 226.24658203 4.54875183 225.85180664 7.13371277 C221.14839462 13.2120718 213.30836578 17.31049194 206.91430664 21.38371277 C205.89723633 22.03920105 204.88016602 22.69468933 203.83227539 23.37004089 C201.7846767 24.68911738 199.73539078 26.0055789 197.68432617 27.31925964 C193.89839024 29.74445149 190.12503065 32.18881526 186.35180664 34.63371277 C184.9742209 35.52436627 183.59661636 36.41499069 182.21899414 37.30558777 C167.0535138 47.11977047 151.95005989 57.02906623 136.85180664 66.94621277 C136.11794739 67.42804016 135.38408813 67.90986755 134.62799072 68.40629578 C121.4196132 77.07973661 108.26786413 85.83576328 95.14477539 94.63761902 C92.85180664 96.13371277 92.85180664 96.13371277 90.85180664 97.13371277 C91.51180664 93.50371277 92.17180664 89.87371277 92.85180664 86.13371277 C79.98743243 103.51800224 68.48093654 121.91142945 56.85180664 140.13371277 C57.82118164 139.57683777 58.79055664 139.01996277 59.78930664 138.44621277 C67.38748235 134.11055222 75.03065354 129.95334376 82.88745117 126.10466003 C86.33796827 124.40924287 89.7482018 122.66655734 93.12133789 120.82121277 C93.81026123 120.44488708 94.49918457 120.0685614 95.20898438 119.68083191 C96.52869882 118.95510872 97.84480409 118.22277322 99.15673828 117.483078 C100.69060104 116.64055736 102.26830616 115.8787646 103.85180664 115.13371277 C104.51180664 115.46371277 105.17180664 115.79371277 105.85180664 116.13371277 C105.28333008 116.69058777 104.71485352 117.24746277 104.12915039 117.82121277 C103.35700195 118.58433777 102.58485352 119.34746277 101.78930664 120.13371277 C101.03520508 120.87621277 100.28110352 121.61871277 99.50415039 122.38371277 C97.56950353 124.38959111 95.7750756 126.38821613 93.97900391 128.50871277 C89.22489588 133.95649415 84.08260151 139.01475104 78.9546814 144.10600281 C77.12668485 145.92106843 75.30197708 147.73938578 73.47802734 149.55851746 C68.95024521 154.07303193 64.41699857 158.58204614 59.88391113 163.0912323 C56.04214325 166.91316893 52.20249962 170.73721652 48.36557007 174.56401062 C46.58025119 176.34291532 44.79191525 178.11874672 43.00341797 179.89445496 C37.93381858 184.94146579 32.91561599 189.98877061 28.3001709 195.46269226 C24.92398047 199.35790261 21.13756095 202.88477814 17.45727539 206.48918152 C13.664046 210.23529005 10.0874961 214.09185645 6.60668945 218.12931824 C3.66124222 221.49355332 0.55862341 224.70742944 -2.52319336 227.94621277 C-7.55808648 233.27774768 -12.39537776 238.68088753 -16.96850586 244.41886902 C-19.51048411 247.58495304 -22.13710844 250.67102054 -24.77319336 253.75871277 C-29.0442342 258.7748319 -33.17055767 263.87997552 -37.14819336 269.13371277 C-37.47819336 268.47371277 -37.80819336 267.81371277 -38.14819336 267.13371277 C-37.48999023 265.25553894 -37.48999023 265.25553894 -36.36694336 262.92668152 C-35.94485596 262.0448822 -35.52276855 261.16308289 -35.08789062 260.25456238 C-34.37524048 258.80255432 -34.37524048 258.80255432 -33.64819336 257.32121277 C-33.15697998 256.30873474 -32.6657666 255.29625671 -32.15966797 254.25309753 C-23.38851303 236.30500469 -14.13247285 218.59250557 -4.49389648 201.09611511 C-0.96540539 194.67970799 2.4305247 188.20282273 5.78930664 181.69621277 C12.72501534 168.28457055 20.05259381 155.064175 27.85180664 142.13371277 C24.44524291 142.74375344 21.33754855 143.60008087 18.10180664 144.82121277 C14.15620584 146.29543114 10.19721434 147.72324693 6.22145081 149.11405945 C-3.12157195 152.38343435 -12.4210958 155.76292703 -21.68945312 159.23820496 C-23.29794859 159.83932175 -24.90800574 160.43627489 -26.51953125 161.02922058 C-35.55614922 164.35558303 -44.15210899 167.64119877 -52.14819336 173.13371277 C-43.3707296 171.70744611 -34.81024491 169.62786778 -26.21069336 167.38371277 C-25.53509369 167.20929657 -24.85949402 167.03488037 -24.16342163 166.85517883 C-14.70976773 164.41441424 -5.31436727 161.82746404 3.96289062 158.77336121 C7.70748983 157.57872459 10.09613331 156.94915548 13.85180664 158.13371277 C12.93383789 159.84725444 12.01586914 161.5607961 11.09790039 163.27433777 C10.49840576 164.39340515 9.89891113 165.51247253 9.28125 166.66545105 C7.93445504 169.17947389 6.58760619 171.69346785 5.24072266 174.20744324 C1.82896878 180.57563274 -1.58227351 186.94409464 -4.99194336 193.31340027 C-6.23151478 195.62851081 -7.47109804 197.94361502 -8.71069336 200.25871277 C-9.33008789 201.41588806 -9.94948242 202.57306335 -10.58764648 203.76530457 C-13.61814644 209.42379151 -16.6557814 215.07820734 -19.71069336 220.72355652 C-26.4417178 233.16767933 -33.06347278 245.65880816 -39.53125 258.24137878 C-40.3509729 259.83357239 -40.3509729 259.83357239 -41.18725586 261.45793152 C-41.90196045 262.85144836 -41.90196045 262.85144836 -42.63110352 264.27311707 C-44.39811516 267.60496056 -46.26328516 270.86719779 -48.14819336 274.13371277 C-56.03178928 274.23513021 -63.91521698 274.30518608 -71.79931641 274.35343933 C-74.48147159 274.37129602 -77.16324796 274.39912713 -79.84521484 274.43547058 C-83.70022402 274.48398819 -87.55465334 274.50668271 -91.40991211 274.52433777 C-92.60903732 274.54498291 -93.80816254 274.56562805 -95.04362488 274.5868988 C-103.37274681 274.58914404 -103.37274681 274.58914404 -107.36230469 272.24601746 C-111.51785233 267.3309391 -111.6672372 262.38231233 -111.14819336 256.13371277 C-110.30923096 252.02318658 -109.15474851 248.02866784 -107.96069336 244.00871277 C-107.64044189 242.89850769 -107.32019043 241.78830261 -106.99023438 240.64445496 C-104.9774818 233.73465975 -102.80523262 226.90446733 -100.44970703 220.10417175 C-99.28110344 216.62646831 -98.28684247 213.11647895 -97.31625366 209.5791626 C-93.51411285 195.77587774 -88.97258087 182.223401 -84.37036133 168.67155457 C-83.23360511 165.32300555 -82.10976537 161.97026736 -80.98887444 158.61637974 C-80.11130686 155.99682577 -79.2256589 153.38005727 -78.33771133 150.76400566 C-77.71876428 148.9345661 -77.10767444 147.10247417 -76.49679565 145.27032471 C-73.73665824 137.20195836 -71.26363691 130.49373649 -63.58032227 126.06916809 C-58.6513972 124.17338487 -53.54454278 124.52972697 -48.33569336 124.64543152 C-47.12623047 124.65250626 -45.91676758 124.65958099 -44.6706543 124.66687012 C-40.82918981 124.69473179 -36.98921313 124.7574604 -33.14819336 124.82121277 C-30.53493324 124.84630602 -27.92165015 124.86911738 -25.30834961 124.88957214 C-18.92112809 124.94453184 -12.53476705 125.0280779 -6.14819336 125.13371277 C-6.55521484 125.60494568 -6.96223633 126.07617859 -7.3815918 126.56169128 C-7.91816406 127.18487244 -8.45473633 127.80805359 -9.00756836 128.45011902 C-9.53833984 129.06572693 -10.06911133 129.68133484 -10.6159668 130.31559753 C-11.92120448 131.86437144 -13.16657931 133.46327221 -14.39819336 135.07121277 C-14.97569336 135.75183777 -15.55319336 136.43246277 -16.14819336 137.13371277 C-16.80819336 137.13371277 -17.46819336 137.13371277 -18.14819336 137.13371277 C-18.40648926 137.71798035 -18.66478516 138.30224792 -18.9309082 138.90422058 C-20.24492472 141.31087899 -21.67299351 142.88690614 -23.62475586 144.80558777 C-24.29506836 145.46945496 -24.96538086 146.13332214 -25.65600586 146.81730652 C-26.70401367 147.84017761 -26.70401367 147.84017761 -27.77319336 148.88371277 C-28.83280273 149.92978699 -28.83280273 149.92978699 -29.91381836 150.99699402 C-31.65418039 152.71383765 -33.39904317 154.42583109 -35.14819336 156.13371277 C-30.21018154 152.4977559 -25.41731419 148.76236559 -20.77319336 144.75871277 C-15.31959769 140.10170084 -9.77371288 135.58222903 -4.14819336 131.13371277 C2.49853263 125.84369414 9.09505636 120.49449754 15.6796875 115.12760925 C20.09483535 111.53761625 24.54954485 108.00474566 29.03930664 104.50871277 C34.12171548 100.54801303 39.06164966 96.45062799 43.95581055 92.26042175 C48.4392228 88.43953253 53.0486071 84.79961085 57.69824219 81.18400574 C61.41968444 78.28250734 65.06031505 75.30635046 68.66430664 72.25871277 C74.07175698 67.7130075 79.65376148 63.43357864 85.28369141 59.1681366 C90.98351791 54.83505019 96.55111584 50.35910724 102.08618164 45.81828308 C107.35802575 41.50327868 112.73678176 37.35098403 118.17993164 33.25480652 C120.59274955 31.33936774 122.69776779 29.3282044 124.85180664 27.13371277 C101.48670323 41.11381236 78.91243502 55.99597436 56.73657227 71.7943573 C54.97220252 73.04815684 53.20222384 74.29349193 51.42993164 75.53605652 C42.65713008 81.7095571 34.1287983 88.19305166 25.61352539 94.71574402 C24.71126221 95.37920837 23.80899902 96.04267273 22.87939453 96.72624207 C20.54501472 98.58248908 18.55204215 100.40281345 16.46289062 102.5040741 C5.49465178 112.94225863 -4.62650903 113.74272264 -19.41967773 113.47160339 C-21.42419358 113.40662189 -23.42830413 113.33378726 -25.43249512 113.25950623 C-28.16250686 113.17431146 -30.89138241 113.15416431 -33.62254047 113.13579655 C-36.89855864 113.11038897 -40.17354018 113.046619 -43.44897461 112.98136902 C-44.66555252 112.96123245 -45.88213043 112.94109589 -47.13557434 112.92034912 C-48.82465157 112.85786232 -48.82465157 112.85786232 -50.54785156 112.79411316 C-51.5358223 112.76378494 -52.52379303 112.73345673 -53.54170227 112.70220947 C-56.87968221 111.97416916 -58.10218782 110.83730254 -60.14819336 108.13371277 C-61.78427033 101.69347759 -59.18350264 95.66347666 -56.56225586 89.87590027 C-56.18957077 89.01810974 -55.81688568 88.16031921 -55.4329071 87.27653503 C-54.22827618 84.51360605 -53.00110363 81.76136378 -51.77319336 79.00871277 C-50.93857507 77.10589966 -50.10549086 75.20241295 -49.27392578 73.29826355 C-47.64371792 69.57161161 -46.00512472 65.84886408 -44.35766602 62.12980652 C-42.09741729 57.02621266 -39.87364727 51.90777174 -37.66040039 46.78361511 C-36.50821532 44.11863028 -35.34743135 41.45758159 -34.18334961 38.79777527 C-32.84384724 35.73587565 -31.51868724 32.66847446 -30.20678711 29.59465027 C-20.21695949 6.25239733 -20.21695949 6.25239733 -12.14819336 1.13371277 C-8.10851089 -0.21284806 -4.21249559 -0.00731401 0 0 Z " fill="#4FB334" transform="translate(475.148193359375,266.8662872314453)"/>
<path d="M0 0 C0.99 0.495 0.99 0.495 2 1 C1.29037109 1.67482422 1.29037109 1.67482422 0.56640625 2.36328125 C-3.37837922 6.20041175 -6.99831831 10.13852289 -10.4375 14.4375 C-14.00898695 18.88802763 -17.80203307 22.90868798 -21.8828125 26.890625 C-24.46211118 29.46040597 -26.836395 32.16455962 -29.20703125 34.92578125 C-31.16581745 37.19182803 -33.17319796 39.40818285 -35.1875 41.625 C-39.39342654 46.28232922 -43.47620749 51.03609 -47.54418945 55.81347656 C-51.23082347 60.13293066 -55.00552747 64.35890218 -58.8671875 68.5234375 C-61.75991342 71.88239031 -64.37459617 75.4302853 -67 79 C-51.0517592 69.67915374 -51.0517592 69.67915374 -36 59 C-36 62.97989939 -37.86891835 65.10118295 -40.0625 68.25 C-40.98054151 69.59672007 -41.89711058 70.94444461 -42.8125 72.29296875 C-43.31910156 73.03724121 -43.82570313 73.78151367 -44.34765625 74.54833984 C-47.47245209 79.18474643 -50.51323011 83.87622547 -53.5625 88.5625 C-54.20396973 89.54710205 -54.84543945 90.5317041 -55.50634766 91.54614258 C-60.36673221 99.01212616 -65.20033547 106.49483352 -70 114 C-69.030625 113.443125 -68.06125 112.88625 -67.0625 112.3125 C-59.46432429 107.97683945 -51.8211531 103.81963099 -43.96435547 99.97094727 C-40.51383837 98.27553011 -37.10360484 96.53284457 -33.73046875 94.6875 C-33.04154541 94.31117432 -32.35262207 93.93484863 -31.64282227 93.54711914 C-30.32310782 92.82139595 -29.00700255 92.08906045 -27.69506836 91.34936523 C-26.1612056 90.50684459 -24.58350048 89.74505183 -23 89 C-22.34 89.33 -21.68 89.66 -21 90 C-21.56847656 90.556875 -22.13695312 91.11375 -22.72265625 91.6875 C-23.49480469 92.450625 -24.26695312 93.21375 -25.0625 94 C-25.81660156 94.7425 -26.57070313 95.485 -27.34765625 96.25 C-29.28230312 98.25587834 -31.07673104 100.25450336 -32.87280273 102.375 C-37.62691076 107.82278138 -42.76920513 112.88103827 -47.89712524 117.97229004 C-49.72512179 119.78735566 -51.54982956 121.60567301 -53.3737793 123.42480469 C-57.90156143 127.93931916 -62.43480807 132.44833337 -66.96789551 136.95751953 C-70.80966339 140.77945616 -74.64930702 144.60350376 -78.48623657 148.43029785 C-80.27155545 150.20920255 -82.05989139 151.98503396 -83.84838867 153.76074219 C-88.91798806 158.80775302 -93.93619065 163.85505784 -98.55163574 169.32897949 C-101.92782617 173.22418984 -105.71424569 176.75106537 -109.39453125 180.35546875 C-113.18776064 184.10157728 -116.76431054 187.95814368 -120.24511719 191.99560547 C-123.19056442 195.35984055 -126.29318323 198.57371667 -129.375 201.8125 C-134.40989312 207.14403491 -139.2471844 212.54717476 -143.8203125 218.28515625 C-146.36229075 221.45124027 -148.98891508 224.53730777 -151.625 227.625 C-155.89604084 232.64111913 -160.02236431 237.74626275 -164 243 C-164.33 242.34 -164.66 241.68 -165 241 C-164.34179688 239.12182617 -164.34179688 239.12182617 -163.21875 236.79296875 C-162.5856189 235.47026978 -162.5856189 235.47026978 -161.93969727 234.12084961 C-161.46459717 233.15284424 -160.98949707 232.18483887 -160.5 231.1875 C-159.76317993 229.66878296 -159.76317993 229.66878296 -159.01147461 228.11938477 C-150.24031967 210.17129192 -140.98427949 192.4587928 -131.34570312 174.96240234 C-127.81721203 168.54599522 -124.42128194 162.06910996 -121.0625 155.5625 C-114.1267913 142.15085779 -106.79921283 128.93046223 -99 116 C-102.40656373 116.61004067 -105.51425809 117.4663681 -108.75 118.6875 C-112.6956008 120.16171837 -116.6545923 121.58953416 -120.63035583 122.98034668 C-129.97337859 126.24972158 -139.27290244 129.62921426 -148.54125977 133.10449219 C-150.14975523 133.70560899 -151.75981238 134.30256212 -153.37133789 134.89550781 C-162.40795586 138.22187026 -171.00391563 141.507486 -179 147 C-170.22253624 145.57373334 -161.66205155 143.49415501 -153.0625 141.25 C-152.38690033 141.0755838 -151.71130066 140.9011676 -151.01522827 140.72146606 C-141.56157437 138.28070147 -132.16617391 135.69375127 -122.88891602 132.63964844 C-119.14431681 131.44501182 -116.75567333 130.81544271 -113 132 C-113.91796875 133.71354167 -114.8359375 135.42708333 -115.75390625 137.140625 C-116.35340088 138.25969238 -116.95289551 139.37875977 -117.57055664 140.53173828 C-118.9173516 143.04576112 -120.26420045 145.55975508 -121.61108398 148.07373047 C-125.02283786 154.44191997 -128.43408016 160.81038187 -131.84375 167.1796875 C-133.08332142 169.49479805 -134.32290468 171.80990225 -135.5625 174.125 C-136.18189453 175.28217529 -136.80128906 176.43935059 -137.43945312 177.6315918 C-140.46995308 183.29007874 -143.50758804 188.94449457 -146.5625 194.58984375 C-153.29352444 207.03396656 -159.91527942 219.52509539 -166.38305664 232.10766602 C-167.20277954 233.69985962 -167.20277954 233.69985962 -168.0390625 235.32421875 C-168.75376709 236.7177356 -168.75376709 236.7177356 -169.48291016 238.1394043 C-171.2499218 241.47124779 -173.1150918 244.73348502 -175 248 C-182.88359592 248.10141744 -190.76702362 248.17147331 -198.65112305 248.21972656 C-201.33327823 248.23758325 -204.0150546 248.26541436 -206.69702148 248.30175781 C-210.55203066 248.35027542 -214.40645998 248.37296994 -218.26171875 248.390625 C-219.46084396 248.41127014 -220.65996918 248.43191528 -221.89543152 248.45318604 C-230.22455345 248.45543127 -230.22455345 248.45543127 -234.21411133 246.11230469 C-238.36965897 241.19722633 -238.51904384 236.24859956 -238 230 C-237.1610376 225.88947381 -236.00655515 221.89495507 -234.8125 217.875 C-234.49224854 216.76479492 -234.17199707 215.65458984 -233.84204102 214.51074219 C-231.82928844 207.60094698 -229.65703927 200.77075456 -227.30151367 193.97045898 C-226.13291008 190.49275554 -225.13864911 186.98276618 -224.1680603 183.44544983 C-220.36591949 169.64216497 -215.82438751 156.08968824 -211.22216797 142.5378418 C-210.08541175 139.18929278 -208.96157201 135.83655459 -207.84068108 132.48266697 C-206.9631135 129.863113 -206.07746554 127.24634451 -205.18951797 124.63029289 C-204.57057092 122.80085333 -203.95948108 120.9687614 -203.34860229 119.13661194 C-200.58846488 111.06824559 -198.11544355 104.36002372 -190.43212891 99.93545532 C-185.50320385 98.0396721 -180.39634942 98.3960142 -175.1875 98.51171875 C-173.97803711 98.51879349 -172.76857422 98.52586823 -171.52246094 98.53315735 C-167.68099645 98.56101902 -163.84101977 98.62374764 -160 98.6875 C-157.38673988 98.71259325 -154.77345679 98.73540461 -152.16015625 98.75585938 C-145.77293473 98.81081907 -139.38657369 98.89436514 -133 99 C-133.40702148 99.47123291 -133.81404297 99.94246582 -134.23339844 100.42797852 C-134.7699707 101.05115967 -135.30654297 101.67434082 -135.859375 102.31640625 C-136.39014648 102.93201416 -136.92091797 103.54762207 -137.46777344 104.18188477 C-138.77301112 105.73065867 -140.01838595 107.32955944 -141.25 108.9375 C-141.8275 109.618125 -142.405 110.29875 -143 111 C-143.66 111 -144.32 111 -145 111 C-145.2582959 111.58426758 -145.5165918 112.16853516 -145.78271484 112.77050781 C-147.09673136 115.17716622 -148.52480015 116.75319337 -150.4765625 118.671875 C-151.146875 119.33574219 -151.8171875 119.99960937 -152.5078125 120.68359375 C-153.55582031 121.70646484 -153.55582031 121.70646484 -154.625 122.75 C-155.33140625 123.44738281 -156.0378125 124.14476562 -156.765625 124.86328125 C-158.50598703 126.58012488 -160.25084981 128.29211832 -162 130 C-157.06198818 126.36404314 -152.26912083 122.62865283 -147.625 118.625 C-142.17140433 113.96798807 -136.62551952 109.44851626 -131 105 C-124.35327401 99.70998137 -117.75675028 94.36078477 -111.17211914 88.99389648 C-106.75697129 85.40390348 -102.30226179 81.87103289 -97.8125 78.375 C-92.73009116 74.41430027 -87.79015698 70.31691523 -82.89599609 66.12670898 C-78.41258384 62.30581976 -73.80319954 58.66589808 -69.15356445 55.05029297 C-65.4321222 52.14879457 -61.79149159 49.17263769 -58.1875 46.125 C-52.78004966 41.57929473 -47.19804516 37.29986587 -41.56811523 33.03442383 C-35.86698563 28.70034679 -30.29945231 24.22186571 -24.76123047 19.68237305 C-19.54521587 15.41596729 -14.23600095 11.29068124 -8.8671875 7.21875 C-5.84624201 4.88101562 -2.92063292 2.46130489 0 0 Z " fill="#4FB234" transform="translate(602,293)"/>
<path d="M0 0 C0.86222672 -0.00350464 1.72445343 -0.00700928 2.61280823 -0.01062012 C5.46135522 -0.01941862 8.30965362 -0.0135949 11.15820312 -0.00683594 C13.13830615 -0.00818313 15.11840885 -0.01012411 17.09851074 -0.01263428 C21.24783478 -0.01558299 25.39707269 -0.01129598 29.54638672 -0.00195312 C34.86622727 0.00944123 40.18586601 0.00288041 45.50569916 -0.00909805 C49.5943148 -0.01632344 53.68288256 -0.01402559 57.77149963 -0.00884247 C59.73311894 -0.00750785 61.69474258 -0.00914711 63.65635681 -0.01380157 C66.39732385 -0.0188779 69.1379636 -0.01114094 71.87890625 0 C73.09623192 -0.00607269 73.09623192 -0.00607269 74.33815002 -0.01226807 C81.38407649 0.04081466 81.38407649 0.04081466 84.43945312 2.25878906 C86.53961742 6.45911765 85.89089371 10.76516856 84.57861328 15.10693359 C83.36362532 18.37250371 82.07459755 21.59783827 80.75195312 24.82128906 C79.82124304 27.1628143 78.89283733 29.50525687 77.96679688 31.84863281 C77.52319824 32.9647998 77.07959961 34.0809668 76.62255859 35.23095703 C74.57458615 40.47217748 72.83372726 45.792461 71.12158203 51.15234375 C69.96079002 54.73692266 68.75203978 58.3054405 67.55249023 61.87719727 C63.72093312 73.29885266 59.98878408 84.74628058 56.43945312 96.25878906 C56.21128906 96.99178223 55.983125 97.72477539 55.74804688 98.47998047 C52.30084602 109.59720322 49.26025958 120.74848879 47.95507812 132.35253906 C47.83845825 133.36453369 47.83845825 133.36453369 47.71948242 134.39697266 C47.51460949 136.26819144 47.33743942 138.14238385 47.16210938 140.01660156 C46.3333133 143.73498396 45.06440001 145.53920463 42.43945312 148.25878906 C39.35723006 149.79990059 36.10475103 149.44143669 32.72021484 149.4675293 C31.92322678 149.47731308 31.12623871 149.48709686 30.30509949 149.49717712 C27.65979689 149.52715996 25.01454514 149.54852867 22.36914062 149.56738281 C21.4652573 149.57395464 20.56137398 149.58052647 19.63010025 149.58729744 C14.84228328 149.61990938 10.05448868 149.64435144 5.26660156 149.66381836 C1.30891362 149.68160736 -2.64805857 149.71638578 -6.60546875 149.76635742 C-11.38651222 149.82665961 -16.16689375 149.85730848 -20.94829941 149.86699104 C-22.76713635 149.87553294 -24.58595622 149.89431989 -26.40457535 149.92373466 C-43.59560428 150.1867318 -43.59560428 150.1867318 -49.18087769 144.94007874 C-55.37261196 137.39472006 -56.27654379 130.89695153 -55.56054688 121.25878906 C-54.58106001 116.03462763 -53.2215879 110.94037109 -51.81054688 105.82128906 C-51.45768479 104.49285754 -51.10611713 103.1640815 -50.75585938 101.83496094 C-48.86251658 94.71042079 -46.79439921 87.64848039 -44.59667969 80.61157227 C-43.45155211 76.90609701 -42.35158191 73.18838158 -41.26367188 69.46582031 C-41.06648056 68.79113205 -40.86928925 68.11644379 -40.66612244 67.42131042 C-40.25797335 66.02421037 -39.84992972 64.6270795 -39.44198608 63.22991943 C-38.13302752 58.75512966 -36.81244122 54.28375737 -35.49250793 49.81219482 C-34.45705623 46.30368829 -33.42392514 42.79457591 -32.39990234 39.28271484 C-31.36090159 35.7295086 -30.30666474 32.18119172 -29.24804688 28.63378906 C-28.94737305 27.59327393 -28.64669922 26.55275879 -28.33691406 25.48071289 C-25.96207371 17.60998101 -22.94783122 10.74364961 -16.49804688 5.38378906 C-15.84707031 4.82949219 -15.19609375 4.27519531 -14.52539062 3.70410156 C-9.7691873 0.20550269 -5.82596953 -0.02906315 0 0 Z " fill="#82FD2E" transform="translate(303.560546875,391.7412109375)"/>
<path d="M0 0 C0.87183426 -0.0065712 1.74366852 -0.0131424 2.641922 -0.01991272 C5.52829065 -0.03963177 8.4146074 -0.0513032 11.30102539 -0.0612793 C12.77880557 -0.06739259 12.77880557 -0.06739259 14.2864399 -0.07362938 C19.49759842 -0.09448088 24.70873066 -0.10878845 29.91992188 -0.11816406 C35.30828811 -0.12924642 40.69624342 -0.16367 46.08446407 -0.20333576 C50.22368656 -0.22944198 54.36281004 -0.23785039 58.50210762 -0.24144554 C60.4888748 -0.24632445 62.47563718 -0.25797534 64.46232414 -0.27648354 C67.23954073 -0.30075495 70.01567924 -0.29993242 72.79296875 -0.29296875 C74.02667709 -0.31218384 74.02667709 -0.31218384 75.28530884 -0.33178711 C78.89894374 -0.29870273 81.02513643 -0.14447028 83.97554016 2.03070068 C86.03223252 5.00199725 85.95115555 6.6132329 85.46118164 10.17700195 C84.5458198 12.63025077 83.59151595 14.86628257 82.44555664 17.2043457 C82.12231918 17.88982483 81.79908173 18.57530396 81.46604919 19.28155518 C80.76086732 20.77653451 80.05099354 22.2693076 79.33700562 23.76010132 C77.38178286 27.84899782 75.46877632 31.95742242 73.55883789 36.06762695 C73.15091507 36.94496994 72.74299225 37.82231293 72.32270813 38.72624207 C67.18966037 49.83417552 62.4188576 61.09718068 57.64868164 72.36450195 C57.21753052 73.38091766 56.78637939 74.39733337 56.34216309 75.44454956 C55.1023708 78.36879848 53.86493306 81.29402526 52.62915039 84.2199707 C52.26623398 85.07907043 51.90331757 85.93817017 51.52940369 86.82330322 C51.18357742 87.64538269 50.83775116 88.46746216 50.48144531 89.31445312 C50.14607758 90.11039886 49.81070984 90.9063446 49.46517944 91.72640991 C48.76325474 93.43969165 48.08757598 95.16385578 47.43203735 96.89541626 C47.09529999 97.78151581 46.75856262 98.66761536 46.41162109 99.58056641 C46.11713577 100.37823929 45.82265045 101.17591217 45.51924133 101.99775696 C43.28339165 106.60285085 39.52977493 109.33170943 34.87915039 111.23210144 C30.74729588 112.37435631 27.05987662 112.46499652 22.79711914 112.45166016 C21.52279022 112.45932655 21.52279022 112.45932655 20.22271729 112.46714783 C17.42713285 112.48099672 14.6317962 112.48009086 11.83618164 112.4777832 C9.88614816 112.48167219 7.93611553 112.48600728 5.98608398 112.49076843 C1.90418752 112.49822013 -2.17762242 112.49794658 -6.25952148 112.49267578 C-11.48501095 112.48687692 -16.71014645 112.50382737 -21.93557739 112.52702045 C-25.96079572 112.54176442 -29.98592888 112.54262868 -34.01116943 112.53951073 C-35.93764956 112.54002342 -37.86413451 112.54525135 -39.79058838 112.55532265 C-42.48554402 112.56768508 -45.17981091 112.56089702 -47.87475586 112.54931641 C-49.06255646 112.56078201 -49.06255646 112.56078201 -50.27435303 112.57247925 C-56.30402525 112.51532693 -60.39056854 111.10491846 -64.97631836 106.98950195 C-67.12780638 103.11682351 -66.57018224 100.322526 -65.53881836 96.17700195 C-63.78083108 91.29800809 -61.7284767 86.55634236 -59.66381836 81.80200195 C-59.0733928 80.42189066 -58.4839693 79.04135028 -57.89550781 77.66040039 C-56.69679749 74.8509403 -55.49288908 72.04380294 -54.28442383 69.23852539 C-52.19912362 64.39407375 -50.14707815 59.53574937 -48.09765625 54.67602539 C-46.75030956 51.48384279 -45.39468504 48.29526047 -44.03881836 45.10668945 C-42.42128629 41.29163867 -40.8377518 37.46570891 -39.28881836 33.62231445 C-38.93795166 32.76089844 -38.58708496 31.89948242 -38.22558594 31.01196289 C-37.59062889 29.4488485 -36.96442522 27.88212761 -36.35009766 26.31079102 C-31.89821079 15.41243076 -23.98554216 6.88845525 -13.30053711 1.90356445 C-8.81735469 0.05462448 -4.7739416 0.0155691 0 0 Z " fill="#4FB333" transform="translate(357.538818359375,266.822998046875)"/>
<path d="M0 0 C3.25 1.4375 3.25 1.4375 5 4 C5.64351357 9.85233097 3.27071036 15.25387905 1.21484375 20.609375 C-1.24468481 27.4739113 -3.06126662 34.54591736 -5.02832031 41.56396484 C-6.13598524 45.48086842 -7.26583238 49.39103373 -8.3984375 53.30078125 C-12.50245733 67.49174121 -16.52502611 81.67169937 -20.01904297 96.02807617 C-21.7568435 103.14208014 -23.71840128 110.16047395 -25.85546875 117.1640625 C-26.63130844 119.71407922 -27.32226849 122.25086032 -27.98828125 124.8359375 C-30.57488598 134.82044464 -33.55904749 142.40331146 -42.58261108 147.91779137 C-47.07664749 149.92966664 -51.61728897 149.65089062 -56.46484375 149.56762695 C-57.58767258 149.56835709 -58.7105014 149.56908722 -59.86735535 149.56983948 C-63.55790458 149.5663717 -67.24717276 149.52754585 -70.9375 149.48828125 C-73.50438752 149.47895032 -76.07128397 149.47183553 -78.63818359 149.46684265 C-84.69074638 149.44973929 -90.74278492 149.41038244 -96.79515076 149.3600952 C-103.68994098 149.30406134 -110.58475383 149.27668017 -117.47971535 149.25161803 C-131.65338747 149.19946149 -145.82667751 149.11160739 -160 149 C-153.74374762 141.61404287 -153.74374762 141.61404287 -150.58422852 138.48657227 C-149.68783409 137.59513268 -149.68783409 137.59513268 -148.77333069 136.6856842 C-148.14817062 136.06882248 -147.52301056 135.45196075 -146.87890625 134.81640625 C-146.21592026 134.15720688 -145.55293427 133.49800751 -144.86985779 132.8188324 C-142.06475934 130.02990654 -139.25370319 127.2470149 -136.44311523 124.46362305 C-134.37792822 122.41667167 -132.31586679 120.36660694 -130.25390625 118.31640625 C-129.3192025 117.39415001 -129.3192025 117.39415001 -128.36561584 116.45326233 C-125.36635265 113.47049062 -122.48166154 110.44237872 -119.72772217 107.23069763 C-116.2347629 103.22017958 -112.57223238 99.42424706 -108.8112793 95.66601562 C-107.79043999 94.6401384 -107.79043999 94.6401384 -106.74897766 93.59353638 C-104.52666771 91.36182168 -102.30069536 89.1338073 -100.07421875 86.90625 C-98.51952444 85.34833938 -96.96490423 83.79035481 -95.41035461 82.2322998 C-92.16686133 78.98284416 -88.92133358 75.73543625 -85.67456055 72.48925781 C-81.50523572 68.32003527 -77.34287037 64.14393715 -73.18217754 59.9661026 C-69.9815283 56.75437364 -66.77638386 53.54716055 -63.56992531 50.3412323 C-62.0320575 48.80218138 -60.49581798 47.2615017 -58.96121788 45.7191925 C-56.82608091 43.57432301 -54.68478045 41.43580482 -52.54174805 39.29882812 C-51.5872023 38.33585312 -51.5872023 38.33585312 -50.6133728 37.35342407 C-46.22832515 33 -46.22832515 33 -44 33 C-43.74323486 32.40550049 -43.48646973 31.81100098 -43.22192383 31.19848633 C-41.88460083 28.79237372 -40.57133304 27.5594683 -38.44921875 25.82421875 C-33.63074518 21.74554243 -29.2366319 17.31080008 -24.8125 12.8125 C-10.70980836 -1.52310149 -10.70980836 -1.52310149 0 0 Z " fill="#4FB333" transform="translate(598,392)"/>
<path d="M0 0 C0.99 0.495 0.99 0.495 2 1 C1.29037109 1.67482422 1.29037109 1.67482422 0.56640625 2.36328125 C-3.37837922 6.20041175 -6.99831831 10.13852289 -10.4375 14.4375 C-14.00898695 18.88802763 -17.80203307 22.90868798 -21.8828125 26.890625 C-24.46211118 29.46040597 -26.836395 32.16455962 -29.20703125 34.92578125 C-31.16581745 37.19182803 -33.17319796 39.40818285 -35.1875 41.625 C-39.39342654 46.28232922 -43.47620749 51.03609 -47.54418945 55.81347656 C-51.23082347 60.13293066 -55.00552747 64.35890218 -58.8671875 68.5234375 C-61.75991342 71.88239031 -64.37459617 75.4302853 -67 79 C-51.0517592 69.67915374 -51.0517592 69.67915374 -36 59 C-36 62.97989939 -37.86891835 65.10118295 -40.0625 68.25 C-40.98054151 69.59672007 -41.89711058 70.94444461 -42.8125 72.29296875 C-43.31910156 73.03724121 -43.82570313 73.78151367 -44.34765625 74.54833984 C-47.47245209 79.18474643 -50.51323011 83.87622547 -53.5625 88.5625 C-54.20396973 89.54710205 -54.84543945 90.5317041 -55.50634766 91.54614258 C-60.36673221 99.01212616 -65.20033547 106.49483352 -70 114 C-69.030625 113.443125 -68.06125 112.88625 -67.0625 112.3125 C-59.46432429 107.97683945 -51.8211531 103.81963099 -43.96435547 99.97094727 C-40.51383837 98.27553011 -37.10360484 96.53284457 -33.73046875 94.6875 C-33.04154541 94.31117432 -32.35262207 93.93484863 -31.64282227 93.54711914 C-30.32310782 92.82139595 -29.00700255 92.08906045 -27.69506836 91.34936523 C-26.1612056 90.50684459 -24.58350048 89.74505183 -23 89 C-22.34 89.33 -21.68 89.66 -21 90 C-21.56847656 90.556875 -22.13695312 91.11375 -22.72265625 91.6875 C-23.49480469 92.450625 -24.26695312 93.21375 -25.0625 94 C-25.81660156 94.7425 -26.57070313 95.485 -27.34765625 96.25 C-29.28230312 98.25587834 -31.07673104 100.25450336 -32.87280273 102.375 C-37.62691076 107.82278138 -42.76920513 112.88103827 -47.89712524 117.97229004 C-49.72512179 119.78735566 -51.54982956 121.60567301 -53.3737793 123.42480469 C-57.90156143 127.93931916 -62.43480807 132.44833337 -66.96789551 136.95751953 C-70.80966339 140.77945616 -74.64930702 144.60350376 -78.48623657 148.43029785 C-80.27155545 150.20920255 -82.05989139 151.98503396 -83.84838867 153.76074219 C-88.91798806 158.80775302 -93.93619065 163.85505784 -98.55163574 169.32897949 C-101.92782617 173.22418984 -105.71424569 176.75106537 -109.39453125 180.35546875 C-113.18776064 184.10157728 -116.76431054 187.95814368 -120.24511719 191.99560547 C-123.19056442 195.35984055 -126.29318323 198.57371667 -129.375 201.8125 C-134.40989312 207.14403491 -139.2471844 212.54717476 -143.8203125 218.28515625 C-146.36229075 221.45124027 -148.98891508 224.53730777 -151.625 227.625 C-155.89604084 232.64111913 -160.02236431 237.74626275 -164 243 C-164.33 242.34 -164.66 241.68 -165 241 C-164.34179688 239.12182617 -164.34179688 239.12182617 -163.21875 236.79296875 C-162.7966626 235.91116943 -162.3745752 235.02937012 -161.93969727 234.12084961 C-161.46459717 233.15284424 -160.98949707 232.18483887 -160.5 231.1875 C-160.00878662 230.17502197 -159.51757324 229.16254395 -159.01147461 228.11938477 C-150.24031967 210.17129192 -140.98427949 192.4587928 -131.34570312 174.96240234 C-127.81721203 168.54599522 -124.42128194 162.06910996 -121.0625 155.5625 C-114.1267913 142.15085779 -106.79921283 128.93046223 -99 116 C-102.40656373 116.61004067 -105.51425809 117.4663681 -108.75 118.6875 C-112.69048638 120.16066901 -116.64526511 121.58311562 -120.61772156 122.9677124 C-130.87723052 126.54817164 -141.03561022 130.37677673 -151.1875 134.25 C-153.65040325 135.18861748 -156.11353684 136.12661526 -158.57722473 137.06317139 C-160.09030881 137.63844772 -161.6029448 138.21490462 -163.11503601 138.79278564 C-167.04913696 140.2894925 -170.99499646 141.70040202 -175 143 C-172.32649474 139.45791353 -169.60528783 136.68259025 -166.125 133.9375 C-161.73103773 130.41882902 -157.43910947 126.81395748 -153.1875 123.125 C-147.35999507 118.08971533 -141.37075748 113.30223935 -135.29296875 108.57421875 C-131.46382408 105.59280631 -127.71308965 102.51975801 -123.96484375 99.4375 C-115.31734021 92.32808998 -106.64436695 85.25455952 -97.8125 78.375 C-92.73016567 74.41420037 -87.79016161 70.31691919 -82.89599609 66.12670898 C-78.41258384 62.30581976 -73.80319954 58.66589808 -69.15356445 55.05029297 C-65.4321222 52.14879457 -61.79149159 49.17263769 -58.1875 46.125 C-52.78004966 41.57929473 -47.19804516 37.29986587 -41.56811523 33.03442383 C-35.86698563 28.70034679 -30.29945231 24.22186571 -24.76123047 19.68237305 C-19.54521587 15.41596729 -14.23600095 11.29068124 -8.8671875 7.21875 C-5.84624201 4.88101562 -2.92063292 2.46130489 0 0 Z " fill="#FAFAFA" transform="translate(602,293)"/>
<path d="M0 0 C0.33 0 0.66 0 1 0 C1.17015625 0.94504395 1.3403125 1.89008789 1.515625 2.86376953 C4.90509905 21.50245341 8.43803991 39.52716798 16 57 C16.4232959 57.99064453 16.8465918 58.98128906 17.28271484 60.00195312 C25.71208553 80.53184085 25.71208553 80.53184085 38.37890625 98.51953125 C38.91386719 99.33808594 39.44882812 100.15664063 40 101 C38.79181714 106.02005731 36.33911858 110.38211947 33.875 114.875 C33.50246094 115.56335938 33.12992187 116.25171875 32.74609375 116.9609375 C31.83500474 118.64294798 30.91809685 120.32180436 30 122 C22.11640408 122.10141744 14.23297638 122.17147331 6.34887695 122.21972656 C3.66672177 122.23758325 0.9849454 122.26541436 -1.69702148 122.30175781 C-5.55203066 122.35027542 -9.40645998 122.37296994 -13.26171875 122.390625 C-14.46084396 122.41127014 -15.65996918 122.43191528 -16.89543152 122.45318604 C-25.22455345 122.45543127 -25.22455345 122.45543127 -29.21411133 120.11230469 C-33.36965897 115.19722633 -33.51904384 110.24859956 -33 104 C-32.1610376 99.88947381 -31.00655515 95.89495507 -29.8125 91.875 C-29.49224854 90.76479492 -29.17199707 89.65458984 -28.84204102 88.51074219 C-26.80213142 81.50771671 -24.59000517 74.59006276 -22.2109375 67.6953125 C-21.1101327 64.33608238 -20.15240493 60.97627912 -19.22753906 57.56665039 C-15.88932081 45.3105855 -11.80267894 33.32452023 -7.6875 21.3125 C-7.36709747 20.37625793 -7.04669495 19.44001587 -6.71658325 18.47540283 C-5.79670074 15.79130206 -4.87387432 13.10824114 -3.94921875 10.42578125 C-3.66716583 9.60587204 -3.38511292 8.78596283 -3.09451294 7.94120789 C-1.11907376 2.23814753 -1.11907376 2.23814753 0 0 Z " fill="#83FC2F" transform="translate(397,419)"/>
<path d="M0 0 C4.75068309 3.95890257 7.15577606 8.16448165 7.86328125 14.23046875 C8.17074771 23.11463111 4.78649542 29.63993259 -1.18359375 36.07421875 C-7.44136165 42.10889332 -14.14163288 47.36525525 -21.375 52.1875 C-11.805 52.5175 -2.235 52.8475 7.625 53.1875 C6.965 58.7975 6.305 64.4075 5.625 70.1875 C-14.835 70.1875 -35.295 70.1875 -56.375 70.1875 C-53.39568923 55.29094616 -46.00627648 50.36454592 -34.19921875 42.09472656 C-21.75469175 33.87278685 -21.75469175 33.87278685 -13.375 22.1875 C-13.09847175 19.89438183 -13.09847175 19.89438183 -13.1875 17.5625 C-13.19716797 16.39847656 -13.19716797 16.39847656 -13.20703125 15.2109375 C-13.25449367 13.1187732 -13.25449367 13.1187732 -14.375 11.1875 C-17.35644005 10.31277998 -20.27575496 10.0607847 -23.375 10.1875 C-27.87997976 12.67961646 -28.39450416 14.2362604 -30.375 19.1875 C-36.645 19.1875 -42.915 19.1875 -49.375 19.1875 C-46.95924358 9.52447434 -43.54141256 3.78248162 -35.375 -1.8125 C-23.98719253 -7.25717562 -10.88339174 -5.84478446 0 0 Z " fill="#83F436" transform="translate(700.375,592.8125)"/>
<path d="M0 0 C-0.70940119 9.79186822 -1.85641954 19.51029146 -3.0625 29.25 C-3.25086253 30.78513031 -3.43901494 32.32028643 -3.62695312 33.85546875 C-4.08221924 37.57061233 -4.54030722 41.28540124 -5 45 C-1.7 45 1.6 45 5 45 C4.85970581 47.1462026 4.71261836 49.29196218 4.5625 51.4375 C4.48128906 52.63246094 4.40007813 53.82742188 4.31640625 55.05859375 C4 58 4 58 3 59 C-0.33618231 59.14257189 -3.65975606 59.04228157 -7 59 C-7.33 63.62 -7.66 68.24 -8 73 C-13.94 73 -19.88 73 -26 73 C-25.67 68.38 -25.34 63.76 -25 59 C-36.22 59 -47.44 59 -59 59 C-57.8766746 44.39676975 -57.8766746 44.39676975 -53.375 40.1875 C-52.46234375 39.2903125 -51.5496875 38.393125 -50.609375 37.46875 C-49.74828125 36.6540625 -48.8871875 35.839375 -48 35 C-46.85583527 33.74639343 -45.72865258 32.47691589 -44.625 31.1875 C-44.07585938 30.55585937 -43.52671875 29.92421875 -42.9609375 29.2734375 C-40.90374131 26.88840128 -38.8471365 24.50292293 -36.79785156 22.11108398 C-35.76182597 20.90723532 -34.71942993 19.7088412 -33.67089844 18.51586914 C-31.05337215 15.51571309 -28.62310044 12.52230192 -26.4140625 9.20703125 C-19.11109169 -1.33528548 -12.35538729 -1.59029737 0 0 Z " fill="#85F636" transform="translate(769,590)"/>
<path d="M0 0 C15.84 0 31.68 0 48 0 C47.67 4.29 47.34 8.58 47 13 C37.1 13 27.2 13 17 13 C16.67 16.96 16.34 20.92 16 25 C24.25 25 32.5 25 41 25 C40.67 29.29 40.34 33.58 40 38 C31.42 38.33 22.84 38.66 14 39 C13.34 43.29 12.68 47.58 12 52 C21.9 52 31.8 52 42 52 C41.67 56.62 41.34 61.24 41 66 C24.83 66 8.66 66 -8 66 C-7.39496329 54.50430255 -6.76576442 44.58465974 -4.7578125 33.4921875 C-3.81811499 28.17345294 -3.25098936 22.82527919 -2.73461914 17.45092773 C-2.14047456 11.51158135 -1.08069281 5.94381044 0 0 Z " fill="#F9F9FA" transform="translate(263,589)"/>
<path d="M0 0 C15.84 0 31.68 0 48 0 C47.67 4.29 47.34 8.58 47 13 C37.1 13 27.2 13 17 13 C16.67 16.96 16.34 20.92 16 25 C23.59 25 31.18 25 39 25 C38.67 29.29 38.34 33.58 38 38 C30.08 38 22.16 38 14 38 C13.87625 40.76375 13.7525 43.5275 13.625 46.375 C13.28764506 53.09302683 12.58635938 59.4430479 11 66 C4.73 66 -1.54 66 -8 66 C-7.04903891 55.10052285 -6.0012962 44.34713537 -4.18310547 33.56201172 C-2.34875527 22.43300209 -1.24519694 11.20677246 0 0 Z " fill="#F8F8F9" transform="translate(499,589)"/>
<path d="M0 0 C0.81210937 -0.02835938 1.62421875 -0.05671875 2.4609375 -0.0859375 C9.96888373 -0.11000143 14.52044854 2.79346796 20.0625 7.625 C22.43484801 10.47181761 22.74951787 12.93912341 22.72265625 16.51171875 C22.72015869 17.19451904 22.71766113 17.87731934 22.71508789 18.58081055 C22.70598389 19.44101807 22.69687988 20.30122559 22.6875 21.1875 C22.666875 23.930625 22.64625 26.67375 22.625 29.5 C11.735 29.5 0.845 29.5 -10.375 29.5 C-8.36348737 36.27489892 -8.36348737 36.27489892 -5.375 37.5 C1.98801571 37.94845563 8.56070063 37.55506891 15.625 35.5 C16.945 35.5 18.265 35.5 19.625 35.5 C19.625 38.8 19.625 42.1 19.625 45.5 C8.86449863 50.47873944 -2.71982902 52.84576706 -14.4375 49.3125 C-19.52324234 47.26287879 -23.15476941 44.53952827 -26.015625 39.7578125 C-29.1499352 32.24627598 -28.2644115 22.88851776 -25.2890625 15.39453125 C-20.01111574 4.45519716 -11.78610231 -0.03706321 0 0 Z " fill="#F6F6F7" transform="translate(435.375,605.5)"/>
<path d="M0 0 C5.94 0 11.88 0 18 0 C23 9.75 23 9.75 23 12 C23.99 12 24.98 12 26 12 C26.268125 11.42765625 26.53625 10.8553125 26.8125 10.265625 C29.15550145 5.79542486 31.54060539 2.51740018 36 0 C41.93879177 -1.00427466 48.02822047 -0.45936766 54 0 C52.55389509 3.34426324 50.74373289 5.45762847 48.12109375 7.96875 C47.36505859 8.70480469 46.60902344 9.44085937 45.83007812 10.19921875 C44.23299535 11.73502569 42.63402987 13.26887718 41.03320312 14.80078125 C39.90108398 15.90486328 39.90108398 15.90486328 38.74609375 17.03125 C38.05185303 17.69705078 37.3576123 18.36285156 36.64233398 19.04882812 C34.85427132 21.17313269 34.14508291 22.23160795 34 25 C34.96250718 27.44528363 34.96250718 27.44528363 36.52734375 29.9140625 C37.07197266 30.83960938 37.61660156 31.76515625 38.17773438 32.71875 C38.75845703 33.6778125 39.33917969 34.636875 39.9375 35.625 C41.07518223 37.53172999 42.20947901 39.4404854 43.33984375 41.3515625 C43.84894287 42.19541504 44.35804199 43.03926758 44.88256836 43.90869141 C46 46 46 46 46 48 C33.32551882 49.19570577 33.32551882 49.19570577 28 48 C24.62380316 45.17087209 23.15562658 42.21737287 22 38 C22 37.01 22 36.02 22 35 C20.95203782 35.84643099 19.91207308 36.70276192 18.875 37.5625 C17.89080078 38.37267578 17.89080078 38.37267578 16.88671875 39.19921875 C15.00869155 40.99170434 14.00684877 42.66407766 12.6875 44.875 C10.97710729 47.04276791 9.72153081 47.89099426 6.97998047 48.30517578 C1.63840942 48.61366229 -3.66649233 48.35221277 -9 48 C-7.5158627 44.51345524 -5.53785948 42.35808928 -2.8125 39.75 C0.84401894 36.18194522 4.27174179 32.51179152 7.58984375 28.62890625 C8.67629098 27.37392427 9.82625655 26.17374345 11 25 C10.64606423 21.41337644 9.50460929 18.73854268 7.71484375 15.64453125 C7.26689453 14.85755859 6.81894531 14.07058594 6.35742188 13.25976562 C5.65456055 12.04836914 5.65456055 12.04836914 4.9375 10.8125 C4.00534817 9.19617671 3.07677295 7.57778375 2.15234375 5.95703125 C1.73976318 5.24522705 1.32718262 4.53342285 0.90209961 3.80004883 C0 2 0 2 0 0 Z " fill="#F8F8F8" transform="translate(574,607)"/>
<path d="M0 0 C5.94 0 11.88 0 18 0 C20.24609375 4.24804688 20.24609375 4.24804688 22.4921875 8.49609375 C23.75654114 11.10140442 23.75654114 11.10140442 26 12 C26.2784375 11.42765625 26.556875 10.8553125 26.84375 10.265625 C29.04099813 5.96020636 30.76740085 2.5876152 35 0 C40.92875581 -1.02530481 47.03603819 -0.45439709 53 0 C51.66107286 2.9896871 50.19457518 5.03653522 47.84765625 7.3125 C47.23599609 7.91320312 46.62433594 8.51390625 45.99414062 9.1328125 C45.35669922 9.74898437 44.71925781 10.36515625 44.0625 11 C38.44118416 16.04038144 38.44118416 16.04038144 34 22 C34.44551763 25.85519085 35.69703571 28.54908 37.72265625 31.828125 C38.26083984 32.70984375 38.79902344 33.5915625 39.35351562 34.5 C39.91748047 35.4075 40.48144531 36.315 41.0625 37.25 C42.18013523 39.06663297 43.29611664 40.88428482 44.41015625 42.703125 C44.90652588 43.50395508 45.40289551 44.30478516 45.91430664 45.12988281 C47 47 47 47 47 48 C34.40496277 49.31948009 34.40496277 49.31948009 29 48 C25.3678423 44.86243399 23.55750987 41.51000684 22 37 C22 36.34 22 35.68 22 35 C21.34 35 20.68 35 20 35 C19.74347656 35.56203125 19.48695313 36.1240625 19.22265625 36.703125 C16.66809288 41.50211305 13.67316888 45.15675822 9 48 C3.39690829 49.09779676 -2.35655679 48.52482078 -8 48 C-6.58261511 44.74792908 -4.87473588 42.68638933 -2.3125 40.25 C1.16756497 36.86501877 4.39737412 33.3500423 7.5546875 29.6640625 C8.65402798 28.39833536 9.8145434 27.1854566 11 26 C10.8653497 20.14720028 7.81384552 15.65600887 4.9375 10.75 C4.00544582 9.14274695 3.07687477 7.53346731 2.15234375 5.921875 C1.73976318 5.21643555 1.32718262 4.51099609 0.90209961 3.78417969 C0 2 0 2 0 0 Z " fill="#F8F8F8" transform="translate(314,607)"/>
<path d="M0 0 C0.02712066 1.43739513 0.04645067 2.87493863 0.0625 4.3125 C0.07410156 5.11300781 0.08570313 5.91351562 0.09765625 6.73828125 C0 9 0 9 -1 12 C-1.71285156 11.84273437 -2.42570312 11.68546875 -3.16015625 11.5234375 C-8.26757085 10.58204334 -14.25043148 9.56915657 -19.01171875 12.046875 C-21.1445242 13.80269546 -22.76022261 15.52044521 -24 18 C-24.17431846 20.12039826 -24.26709071 22.24793308 -24.3125 24.375 C-24.34988281 25.51710938 -24.38726562 26.65921875 -24.42578125 27.8359375 C-24.24095818 31.04722758 -24.24095818 31.04722758 -22.3203125 33.390625 C-19.49412026 35.35087955 -17.97367656 35.47908583 -14.5625 35.375 C-13.63566406 35.36210938 -12.70882813 35.34921875 -11.75390625 35.3359375 C-8.86838987 34.98394543 -6.66916503 34.11400878 -4 33 C-3.01 33 -2.02 33 -1 33 C-1.34507652 42.04100491 -1.34507652 42.04100491 -3.75 45.5625 C-10.26287578 49.72350397 -20.49552171 48.69147465 -28 48 C-34.01309853 46.48591044 -37.57625406 43.0349205 -41 38 C-44.12564059 31.74871881 -43.98118037 23.93029635 -42.3125 17.24609375 C-39.55726254 9.72659151 -35.56720528 4.24405261 -28.6875 0.0625 C-20.15492309 -3.88560256 -8.59956396 -3.36681042 0 0 Z " fill="#F5F5F6" transform="translate(405,608)"/>
<path d="M0 0 C5.94 0 11.88 0 18 0 C15.78625574 22.06545093 12.96360275 44.02482705 10 66 C4.39 66 -1.22 66 -7 66 C-7.17356747 58.79694991 -6.8413517 52.16141426 -5.63671875 45.0703125 C-4.74566701 39.63333862 -4.14393335 34.15809139 -3.5 28.6875 C-3.37222168 27.60581543 -3.24444336 26.52413086 -3.11279297 25.40966797 C-2.86058515 23.27379308 -2.60862656 21.13788875 -2.35693359 19.00195312 C-1.60334002 12.66393225 -0.79923549 6.33240424 0 0 Z " fill="#F7F7F7" transform="translate(471,589)"/>
<path d="M0 0 C1.58206057 0.00667536 3.16410534 0.0186375 4.74609375 0.03515625 C5.55240234 0.03966797 6.35871094 0.04417969 7.18945312 0.04882812 C9.18753131 0.06065107 11.18557158 0.07858711 13.18359375 0.09765625 C12.49153892 5.8270314 11.79772143 11.55618937 11.10229492 17.28515625 C10.86613713 19.23268917 10.63045467 21.18027978 10.39526367 23.12792969 C10.05643726 25.93309722 9.71588213 28.73805038 9.375 31.54296875 C9.27079239 32.40882599 9.16658478 33.27468323 9.05921936 34.16677856 C8.95919113 34.98717621 8.8591629 35.80757385 8.75610352 36.65283203 C8.66949966 37.36786896 8.58289581 38.08290588 8.4936676 38.8196106 C8.11688169 41.58777535 7.64287355 44.34197743 7.18359375 47.09765625 C1.57359375 47.09765625 -4.03640625 47.09765625 -9.81640625 47.09765625 C-9.14301984 35.2460554 -7.70370778 23.54388103 -6.16015625 11.77832031 C-5.9401921 10.06297485 -5.73083289 8.34621515 -5.53515625 6.62792969 C-4.79401428 0.12267181 -4.79401428 0.12267181 0 0 Z " fill="#F7F8F8" transform="translate(553.81640625,607.90234375)"/>
<path d="M0 0 C0.66 0 1.32 0 2 0 C-1.45742728 15.17975216 -11.54014922 28.00870364 -24.48046875 36.4765625 C-35.64770967 43.22884771 -47.73568398 48.10026585 -61 47 C-54.27144683 40.06117955 -46.9392631 34.04879535 -39.125 28.375 C-37.89922241 27.47865845 -37.89922241 27.47865845 -36.64868164 26.56420898 C-34.10246071 24.70483463 -31.55188178 22.85159567 -29 21 C-28.1848291 20.40751465 -27.3696582 19.8150293 -26.52978516 19.20458984 C-18.61876913 13.45795363 -10.69844539 7.72849904 -2.65234375 2.171875 C-1.04647469 1.10237962 -1.04647469 1.10237962 0 0 Z " fill="#53AE39" transform="translate(627,332)"/>
<path d="M0 0 C3 1.625 3 1.625 5 4 C5.57964612 7.47787674 5.43000514 9.24237189 3.6875 12.3125 C1.0114249 14.9885751 -1.80771395 15.21585255 -5.4375 15.375 C-8.9934139 15.32859329 -9.7419242 15.2089185 -12.625 12.875 C-14 10 -14 10 -14.0625 6.9375 C-11.6527406 0.27522402 -6.5196543 -1.2881575 0 0 Z " fill="#F3F3F4" transform="translate(565,588)"/>
<path d="M0 0 C3.47592226 1.12191151 5.36611131 2.88695533 8.0234375 5.375 C8.90644531 6.1896875 9.78945313 7.004375 10.69921875 7.84375 C12.7109375 9.875 12.7109375 9.875 12.7109375 10.875 C4.4609375 10.875 -3.7890625 10.875 -12.2890625 10.875 C-10.3090625 8.565 -8.3290625 6.255 -6.2890625 3.875 C-5.6084375 3.05 -4.9278125 2.225 -4.2265625 1.375 C-2.2890625 -0.125 -2.2890625 -0.125 0 0 Z " fill="#84FC3B" transform="translate(450.2890625,530.125)"/>
<path d="M0 0 C0.33 0 0.66 0 1 0 C1.24942611 6.60979186 0.29784478 12.5107761 -1 19 C-5.95 19 -10.9 19 -16 19 C-11.14805101 12.23280799 -5.81646707 5.95886646 0 0 Z " fill="#1B281B" transform="translate(747,616)"/>
<path d="M0 0 C2.5 1.125 2.5 1.125 4 3 C4 4.98 4 6.96 4 9 C-1.61 9 -7.22 9 -13 9 C-11.38033312 0.90166559 -7.90944599 -1.31283837 0 0 Z " fill="#252525" transform="translate(439,617)"/>
<path d="M0 0 C0.66 0 1.32 0 2 0 C0.30916337 6.05034312 -2.6828924 11.36414871 -5.625 16.875 C-6.3984375 18.33679688 -6.3984375 18.33679688 -7.1875 19.828125 C-8.45428286 22.22093706 -9.72521318 24.61144536 -11 27 C-11.99 26.67 -12.98 26.34 -14 26 C-12.04249774 19.23771948 -8.89976443 12.84964665 -5 7 C-5.66 6.67 -6.32 6.34 -7 6 C-6.21625 5.7525 -5.4325 5.505 -4.625 5.25 C-1.67682892 3.84610901 -1.0975223 2.99324263 0 0 Z M-16 26 C-15.01 26.495 -15.01 26.495 -14 27 C-14.99 27.495 -14.99 27.495 -16 28 C-16 27.34 -16 26.68 -16 26 Z " fill="#282729" transform="translate(468,469)"/>
<path d="M0 0 C0.66 0 1.32 0 2 0 C0.125 5.75 0.125 5.75 -1 8 C-19.48 8 -37.96 8 -57 8 C-57 7.67 -57 7.34 -57 7 C-56.35742249 6.99191315 -55.71484497 6.98382629 -55.05279541 6.97549438 C-48.3693043 6.88948679 -41.68611108 6.7899846 -35.00292969 6.68261719 C-32.50818888 6.64431646 -30.01339264 6.60946554 -27.51855469 6.578125 C-23.93404315 6.53249876 -20.3499136 6.4744994 -16.765625 6.4140625 C-15.64883362 6.40251129 -14.53204224 6.39096008 -13.38140869 6.37905884 C-12.34063171 6.35918915 -11.29985474 6.33931946 -10.22753906 6.31884766 C-9.31264709 6.30552399 -8.39775513 6.29220032 -7.45513916 6.2784729 C-4.84423077 5.98233195 -3.20013006 5.42341381 -1 4 C-0.19471111 1.94999129 -0.19471111 1.94999129 0 0 Z " fill="#85EE3B" transform="translate(428,533)"/>
<path d="M0 0 C-0.54226981 3.79588866 -2.20127563 5.47211993 -5 8 C-2.94077598 10.05922402 1.21708124 9.41427579 4.0625 9.5625 C5.20041992 9.62727539 5.20041992 9.62727539 6.36132812 9.69335938 C8.24065438 9.79973633 10.12030244 9.90039934 12 10 C12 10.33 12 10.66 12 11 C3.75 11 -4.5 11 -13 11 C-3.57142857 0 -3.57142857 0 0 0 Z " fill="#83E644" transform="translate(451,530)"/>
<path d="M0 0 C0.33 0.99 0.66 1.98 1 3 C-1.55830076 5.5875205 -4.12237416 8.16924676 -6.6875 10.75 C-7.40873047 11.47960937 -8.12996094 12.20921875 -8.87304688 12.9609375 C-12.43762682 16.54179407 -15.97890156 19.92504237 -20 23 C-21.35147138 24.31494512 -22.69112542 25.64264858 -24 27 C-24.66 26.34 -25.32 25.68 -26 25 C-24.94425781 24.05253906 -24.94425781 24.05253906 -23.8671875 23.0859375 C-15.64226982 15.65166047 -7.78655025 7.89021734 0 0 Z " fill="#56AA3E" transform="translate(580,398)"/>
<path d="M0 0 C0 6.53710525 -8.08624689 12.13636779 -12.4375 16.5 C-13.95585169 18.00251195 -15.47580995 19.50341097 -17 21 C-17.99 20.67 -18.98 20.34 -20 20 C-13.4 13.4 -6.8 6.8 0 0 Z " fill="#53A13C" transform="translate(536,441)"/>
<path d="M0 0 C-0.99 0.7734375 -0.99 0.7734375 -2 1.5625 C-8.55783707 6.8650885 -8.55783707 6.8650885 -14.6171875 12.71484375 C-16 14 -16 14 -18 14 C-16.4349762 8.26157939 -12.01526205 3.75985827 -6.9453125 0.80078125 C-4.53740049 -0.19042751 -2.57846169 -0.14324787 0 0 Z " fill="#84EE35" transform="translate(298,393)"/>
<path d="M0 0 C0 4.95605367 -3.656162 7.58198129 -7 11 C-10.5855616 14.42303268 -14.283379 17.72023319 -18 21 C-18.66 20.67 -19.32 20.34 -20 20 C-13.4 13.4 -6.8 6.8 0 0 Z " fill="#54A03B" transform="translate(510,467)"/>
<path d="M0 0 C0.66 0.33 1.32 0.66 2 1 C1.38125 1.0825 0.7625 1.165 0.125 1.25 C-2.69714382 2.24605076 -2.69569094 3.37261484 -4 6 C-5.65625 7.921875 -5.65625 7.921875 -7.5 9.75 C-8.41265625 10.67039062 -8.41265625 10.67039062 -9.34375 11.609375 C-11 13 -11 13 -13 13 C-13 13.99 -13 14.98 -13 16 C-13.66 16 -14.32 16 -15 16 C-13.69529517 10.05634465 -10.56124604 6.76468748 -6 3 C-2.6875 1 -2.6875 1 0 0 Z " fill="#8AE63C" transform="translate(668,590)"/>
<path d="M0 0 C0.33 0.99 0.66 1.98 1 3 C0.46890625 3.45890625 -0.0621875 3.9178125 -0.609375 4.390625 C-5.09259108 8.27441688 -5.09259108 8.27441688 -9.3125 12.4375 C-11 14 -11 14 -14 14 C-12.4561393 10.16666407 -10.07543723 8.01691792 -7 5.3125 C-6.113125 4.52488281 -5.22625 3.73726562 -4.3125 2.92578125 C-2 1 -2 1 0 0 Z " fill="#88E93B" transform="translate(662,638)"/>
<path d="M0 0 C0.66 0.33 1.32 0.66 2 1 C-1.33333333 4.33333333 -4.66666667 7.66666667 -8 11 C-8.72703125 11.76828125 -9.4540625 12.5365625 -10.203125 13.328125 C-12 15 -12 15 -14 15 C-14 14.01 -14 13.02 -14 12 C-12.68212715 10.97971135 -11.34789347 9.98028616 -10 9 C-9.67 8.01 -9.34 7.02 -9 6 C-6.9375 5.3125 -6.9375 5.3125 -5 5 C-5 4.34 -5 3.68 -5 3 C-2.625 1.3125 -2.625 1.3125 0 0 Z " fill="#1B2A17" transform="translate(451,525)"/>
<path d="M0 0 C0 4.90382798 -3.70166865 7.61233885 -7 11 C-8.63654821 12.37013339 -10.29803595 13.7120272 -12 15 C-13.35147138 16.31494512 -14.69112542 17.64264858 -16 19 C-16.66 18.67 -17.32 18.34 -18 18 C-12.06 12.06 -6.12 6.12 0 0 Z " fill="#5BAA40" transform="translate(472,506)"/>
<path d="M0 0 C0.66 0.33 1.32 0.66 2 1 C1.52949219 1.53109375 1.05898438 2.0621875 0.57421875 2.609375 C-0.04839844 3.31578125 -0.67101562 4.0221875 -1.3125 4.75 C-1.92738281 5.44609375 -2.54226563 6.1421875 -3.17578125 6.859375 C-5.02916165 8.96978683 -5.02916165 8.96978683 -6.60546875 11.265625 C-7.06566406 11.83796875 -7.52585937 12.4103125 -8 13 C-8.66 13 -9.32 13 -10 13 C-8.75913019 6.64054224 -4.85530676 3.81649694 0 0 Z " fill="#54A63B" transform="translate(463,268)"/>
<path d="M0 0 C0.33 0.99 0.66 1.98 1 3 C-3.62 7.95 -8.24 12.9 -13 18 C-13.66 17.67 -14.32 17.34 -15 17 C-14.61666504 16.59160889 -14.23333008 16.18321777 -13.83837891 15.76245117 C-12.09836183 13.90620454 -10.36165448 12.04689272 -8.625 10.1875 C-8.02171875 9.54490234 -7.4184375 8.90230469 -6.796875 8.24023438 C-6.21679688 7.61826172 -5.63671875 6.99628906 -5.0390625 6.35546875 C-4.23782959 5.49924927 -4.23782959 5.49924927 -3.42041016 4.62573242 C-1.80420447 2.84684396 -1.80420447 2.84684396 0 0 Z " fill="#5EAF4E" transform="translate(596,301)"/>
<path d="M0 0 C0.66 0.33 1.32 0.66 2 1 C-2 5 -6 9 -10 13 C-10 12.34 -10 11.68 -10 11 C-10.66 10.67 -11.32 10.34 -12 10 C-8.04 6.7 -4.08 3.4 0 0 Z " fill="#D4E8D2" transform="translate(602,293)"/>
<path d="M0 0 C1.13643966 3.40931897 0.86747764 4.00335456 -0.4375 7.1875 C-0.72496094 7.90292969 -1.01242187 8.61835937 -1.30859375 9.35546875 C-1.53675781 9.89816406 -1.76492188 10.44085937 -2 11 C-2.66 11 -3.32 11 -4 11 C-4.12375 11.639375 -4.2475 12.27875 -4.375 12.9375 C-4.58125 13.618125 -4.7875 14.29875 -5 15 C-5.99 15.495 -5.99 15.495 -7 16 C-6.40165275 11.85701333 -4.99335715 8.81805623 -2.9375 5.1875 C-2.11572266 3.72376953 -2.11572266 3.72376953 -1.27734375 2.23046875 C-0.85582031 1.49441406 -0.43429687 0.75835938 0 0 Z " fill="#1E3417" transform="translate(434,526)"/>
<path d="M0 0 C0.33 0 0.66 0 1 0 C1.73226358 7.61554118 -0.80835533 13.16076141 -4 20 C-5.09898702 16.70303895 -4.87124444 15.59505097 -4.0625 12.3125 C-3.86785156 11.50425781 -3.67320312 10.69601562 -3.47265625 9.86328125 C-3.23869141 8.94095703 -3.23869141 8.94095703 -3 8 C-2.34 8 -1.68 8 -1 8 C-0.67 5.36 -0.34 2.72 0 0 Z " fill="#86E943" transform="translate(388,396)"/>
<path d="M0 0 C3.51864243 3.04949011 4.97072745 5.45404624 6 10 C6.14773756 13.00892172 6.12037524 15.99061889 6 19 C5.67 19 5.34 19 5 19 C4.80664062 18.04738281 4.61328125 17.09476563 4.4140625 16.11328125 C4.15367187 14.85902344 3.89328125 13.60476563 3.625 12.3125 C3.36976563 11.07113281 3.11453125 9.82976563 2.8515625 8.55078125 C2.12613946 5.52596682 1.24868779 2.83940745 0 0 Z " fill="#77D33D" transform="translate(702,595)"/>
<path d="M0 0 C0 3.67898367 -1.10720557 5.41928665 -2.875 8.625 C-3.40867187 9.60726563 -3.94234375 10.58953125 -4.4921875 11.6015625 C-6 14 -6 14 -8 15 C-6.53200483 10.10668277 -4.66971326 5.36956975 -2 1 C-1.34 0.67 -0.68 0.34 0 0 Z " fill="#1E301B" transform="translate(487,429)"/>
<path d="M0 0 C1 3 1 3 -0.21484375 5.91796875 C-0.78332031 6.99691406 -1.35179687 8.07585937 -1.9375 9.1875 C-2.50339844 10.27417969 -3.06929688 11.36085938 -3.65234375 12.48046875 C-4.09707031 13.31191406 -4.54179687 14.14335937 -5 15 C-5.66 15 -6.32 15 -7 15 C-5.34292168 9.35086937 -3.52237988 4.73699363 0 0 Z " fill="#56A23B" transform="translate(328,281)"/>
<path d="M0 0 C0.33 0.66 0.66 1.32 1 2 C-5.07792208 8.24675325 -5.07792208 8.24675325 -8 10 C-8.99 9.67 -9.98 9.34 -11 9 C-7.37 6.03 -3.74 3.06 0 0 Z " fill="#1C301A" transform="translate(696,631)"/>
<path d="M0 0 C0.33 1.32 0.66 2.64 1 4 C-1.64 6.31 -4.28 8.62 -7 11 C-7.66 10.67 -8.32 10.34 -9 10 C-6.03 6.7 -3.06 3.4 0 0 Z " fill="#8DE83D" transform="translate(734,610)"/>
<path d="M0 0 C1.32 0.33 2.64 0.66 4 1 C1.69 4.96 -0.62 8.92 -3 13 C-3.33 12.34 -3.66 11.68 -4 11 C-3.0421975 8.64903024 -2.03842565 6.31648799 -1 4 C-0.62691369 2.67723944 -0.26953585 1.34767923 0 0 Z " fill="#53A33E" transform="translate(485,424)"/>
<path d="M0 0 C0.86625 0.37125 0.86625 0.37125 1.75 0.75 C-1.05804268 3.71404505 -3.43315774 6.19499019 -7.25 7.75 C-6.66524269 3.65669884 -4.62230386 -0.51358932 0 0 Z " fill="#76B562" transform="translate(431.25,430.25)"/>
<path d="M0 0 C0.99 0.33 1.98 0.66 3 1 C1.76210371 4.71368887 0.14775123 5.77354181 -3 8 C-3.66 8 -4.32 8 -5 8 C-4.67 6.68 -4.34 5.36 -4 4 C-3.34 4 -2.68 4 -2 4 C-2 3.34 -2 2.68 -2 2 C-1.34 2 -0.68 2 0 2 C0 1.34 0 0.68 0 0 Z " fill="#2E2E2D" transform="translate(466,398)"/>
<path d="M0 0 C1 3 1 3 1 6 C-2.96 7.98 -2.96 7.98 -7 10 C-4.98127747 5.96255494 -2.91899872 3.37989325 0 0 Z " fill="#74B270" transform="translate(541,363)"/>
<path d="M0 0 C0.33 0 0.66 0 1 0 C1 2.64 1 5.28 1 8 C0.01 8.33 -0.98 8.66 -2 9 C-2.73323796 11.01508358 -2.73323796 11.01508358 -3 13 C-4 11 -4 11 -3.22265625 8.3984375 C-2.83980469 7.40070313 -2.45695312 6.40296875 -2.0625 5.375 C-1.68222656 4.37210937 -1.30195313 3.36921875 -0.91015625 2.3359375 C-0.60980469 1.56507813 -0.30945313 0.79421875 0 0 Z " fill="#86E13D" transform="translate(397,419)"/>
<path d="M0 0 C2.0625 0.4375 2.0625 0.4375 4 1 C2.625 2.5 2.625 2.5 1 4 C0.34 4 -0.32 4 -1 4 C-1 4.66 -1 5.32 -1 6 C-2.32 6.33 -3.64 6.66 -5 7 C-1.125 1.125 -1.125 1.125 0 0 Z " fill="#282E28" transform="translate(447,524)"/>
<path d="M0 0 C0.99 0.33 1.98 0.66 3 1 C-0.96 4.465 -0.96 4.465 -5 8 C-5.66 7.67 -6.32 7.34 -7 7 C-4.69 4.69 -2.38 2.38 0 0 Z " fill="#519D3A" transform="translate(547,430)"/>
<path d="M0 0 C0.99 0.33 1.98 0.66 3 1 C1.35 2.98 -0.3 4.96 -2 7 C-2.66 6.67 -3.32 6.34 -4 6 C-2.84826645 3.53199953 -1.95216435 1.95216435 0 0 Z " fill="#1D3316" transform="translate(675,603)"/>
<path d="M0 0 C1.32 0.33 2.64 0.66 4 1 C1.69 3.31 -0.62 5.62 -3 8 C-3.33 7.01 -3.66 6.02 -4 5 C-3.34 5 -2.68 5 -2 5 C-1.34 3.35 -0.68 1.7 0 0 Z " fill="#5FBA44" transform="translate(464,393)"/>
<path d="M0 0 C-0.54226981 3.79588866 -2.20127563 5.47211993 -5 8 C-4.814375 7.21625 -4.62875 6.4325 -4.4375 5.625 C-3.74037734 3.02910225 -3.74037734 3.02910225 -5 1 C-3 0 -3 0 0 0 Z " fill="#E8F4E5" transform="translate(592,304)"/>
<path d="M0 0 C0.66 0 1.32 0 2 0 C1.34 1.98 0.68 3.96 0 6 C-1.65 6.33 -3.3 6.66 -5 7 C-4.34 6.01 -3.68 5.02 -3 4 C-2.34 4 -1.68 4 -1 4 C-0.67 2.68 -0.34 1.36 0 0 Z " fill="#90F83D" transform="translate(428,533)"/>
<path d="M0 0 C0.66 0.33 1.32 0.66 2 1 C1.4375 2.9375 1.4375 2.9375 0 5 C-3.625 5.75 -3.625 5.75 -7 6 C-4.74259377 3.66475218 -2.7194239 1.81294927 0 0 Z " fill="#283929" transform="translate(429,435)"/>
<path d="M0 0 C1.98 0.66 3.96 1.32 6 2 C2.5647952 4.29013653 1.014669 4.17842973 -3 4 C-2.01 2.68 -1.02 1.36 0 0 Z " fill="#1E2319" transform="translate(431,435)"/>
<path d="M0 0 C0.33 0.99 0.66 1.98 1 3 C3.01508358 3.73323796 3.01508358 3.73323796 5 4 C2.69 5.32 0.38 6.64 -2 8 C-1.34 5.36 -0.68 2.72 0 0 Z " fill="#529146" transform="translate(568,356)"/>
<path d="M0 0 C0.33 0.99 0.66 1.98 1 3 C-0.98 4.98 -2.96 6.96 -5 9 C-5.66 8.67 -6.32 8.34 -7 8 C-4.69 5.36 -2.38 2.72 0 0 Z " fill="#6BAC60" transform="translate(549,354)"/>
<path d="M0 0 C0 0.99 0 1.98 0 3 C-1.53125 4.38671875 -1.53125 4.38671875 -3.5 5.6875 C-4.47453125 6.34298828 -4.47453125 6.34298828 -5.46875 7.01171875 C-5.9740625 7.33785156 -6.479375 7.66398437 -7 8 C-7 7.01 -7 6.02 -7 5 C-5.46875 3.61328125 -5.46875 3.61328125 -3.5 2.3125 C-2.8503125 1.87550781 -2.200625 1.43851562 -1.53125 0.98828125 C-1.0259375 0.66214844 -0.520625 0.33601563 0 0 Z " fill="#57A53E" transform="translate(609,345)"/>
<path d="M0 0 C-0.75 1.9375 -0.75 1.9375 -2 4 C-4.125 4.75 -4.125 4.75 -6 5 C-6 4.01 -6 3.02 -6 2 C-3 0 -3 0 0 0 Z " fill="#20261D" transform="translate(593,299)"/>
<path d="M0 0 C0 2.64 0 5.28 0 8 C-0.33 7.34 -0.66 6.68 -1 6 C-1.66 6 -2.32 6 -3 6 C-3.33 5.01 -3.66 4.02 -4 3 C-1.125 0 -1.125 0 0 0 Z " fill="#233F14" transform="translate(748,616)"/>
<path d="M0 0 C0.66 1.32 1.32 2.64 2 4 C0.35 5.65 -1.3 7.3 -3 9 C-2.01 6.03 -1.02 3.06 0 0 Z " fill="#C9C6BF" transform="translate(440,527)"/>
<path d="M0 0 C0.5534764 2.07553648 1 3.84365964 1 6 C-0.65 6.66 -2.3 7.32 -4 8 C-2.87548273 5.0280615 -1.77706209 2.66559313 0 0 Z " fill="#494949" transform="translate(536,399)"/>
<path d="M0 0 C0.33 0.66 0.66 1.32 1 2 C-0.98 4.31 -2.96 6.62 -5 9 C-5.66 8.67 -6.32 8.34 -7 8 C-4.69 5.36 -2.38 2.72 0 0 Z " fill="#63B153" transform="translate(580,319)"/>
<path d="M0 0 C0.33 0.99 0.66 1.98 1 3 C-0.9375 5.6875 -0.9375 5.6875 -3 8 C-3.99 7.67 -4.98 7.34 -6 7 C-4.02 4.69 -2.04 2.38 0 0 Z " fill="#21381D" transform="translate(703,623)"/>
<path d="M0 0 C0.66 0.33 1.32 0.66 2 1 C0.35 2.65 -1.3 4.3 -3 6 C-3.99 5.67 -4.98 5.34 -6 5 C-4.02 3.35 -2.04 1.7 0 0 Z " fill="#519E3C" transform="translate(410,394)"/>
<path d="M0 0 C0.99 0.33 1.98 0.66 3 1 C0.69 2.65 -1.62 4.3 -4 6 C-4.66 5.67 -5.32 5.34 -6 5 C-1.60546875 0.99609375 -1.60546875 0.99609375 0 0 Z " fill="#5BA93F" transform="translate(586,362)"/>
</svg>
